<svg xmlns="http://www.w3.org/2000/svg" fill="none" viewBox="0 0 128 128">
  <style>
    path {fill: black}

    @media( prefers-color-scheme: dark ) {
      path {fill: white}
    }
  </style>

  <path d="M64 86.68A22.7 22.7 0 0 1 41.32 64 22.7 22.7 0 0 1 64 41.32v10.14A12.55 12.55 0 0 0 51.46 64c0 6.91 5.63 12.54 12.54 12.54v10.14Z"/>
  <path d="M64 102.84A38.88 38.88 0 0 1 25.16 64 38.88 38.88 0 0 1 64 25.16V35.3A28.73 28.73 0 0 0 35.3 64 28.73 28.73 0 0 0 64 92.7v10.14Z"/>
  <path d="M64 19.14A44.91 44.91 0 0 0 19.14 64 44.91 44.91 0 0 0 64 108.86 44.91 44.91 0 0 0 108.86 64 44.91 44.91 0 0 0 64 19.14ZM64 119C33.67 119 9 94.33 9 64S33.67 9 64 9s55 24.67 55 55-24.67 55-55 55Z"/>
</svg>
