<svg class="c-occ-logo" xmlns="http://www.w3.org/2000/svg" viewBox="0 0 757 756" fill="none" aria-label="OCC4Sat Logo"> <g fill="currentColor"> <path d="M429.55 377.95a3.6 3.6 0 1 0-7.2 0 3.6 3.6 0 0 0 7.2 0ZM429.55 396.26a3.6 3.6 0 1 0-7.2 0 3.6 3.6 0 0 0 7.2 0ZM419.51 405.4a2.72 2.72 0 1 0-5.43 0 2.72 2.72 0 0 0 5.44 0ZM420.72 423.71a3.92 3.92 0 1 0-7.84 0 3.92 3.92 0 0 0 7.84 0ZM411.02 432.87a3.38 3.38 0 1 0-6.75 0 3.38 3.38 0 0 0 6.75 0ZM401.43 442.02a2.94 2.94 0 1 0-5.88 0 2.94 2.94 0 0 0 5.88 0ZM392 451.17a2.66 2.66 0 1 0-5.32 0 2.66 2.66 0 0 0 5.32 0ZM401.87 460.32a3.38 3.38 0 1 0-6.75 0 3.38 3.38 0 0 0 6.75 0ZM411.02 469.47a3.38 3.38 0 1 0-6.75 0 3.38 3.38 0 0 0 6.75 0ZM428.87 469.47a2.92 2.92 0 1 0-5.84 0 2.92 2.92 0 0 0 5.84 0ZM446.73 469.47a2.47 2.47 0 1 0-4.95 0 2.47 2.47 0 0 0 4.95 0ZM538.94 469.47a2.86 2.86 0 1 0-5.73 0 2.86 2.86 0 0 0 5.73 0ZM465.82 469.47a3.26 3.26 0 1 0-6.53 0 3.26 3.26 0 0 0 6.53 0ZM456.67 478.62a3.26 3.26 0 1 0-6.53 0 3.26 3.26 0 0 0 6.53 0ZM447.51 487.78a3.26 3.26 0 1 0-6.52 0 3.26 3.26 0 0 0 6.52 0ZM438.36 496.93a3.26 3.26 0 1 0-6.52 0 3.26 3.26 0 0 0 6.52 0ZM429.21 506.08a3.26 3.26 0 1 0-6.52 0 3.26 3.26 0 0 0 6.52 0ZM420.06 515.23a3.26 3.26 0 1 0-6.52 0 3.26 3.26 0 0 0 6.52 0ZM410.49 524.38a2.84 2.84 0 1 0-5.68 0 2.84 2.84 0 0 0 5.68 0ZM400.74 533.53a2.25 2.25 0 1 0-4.5 0 2.25 2.25 0 0 0 4.5 0ZM410.25 542.69a2.6 2.6 0 1 0-5.2 0 2.6 2.6 0 0 0 5.2 0ZM428.87 542.69a2.93 2.93 0 1 0-5.85 0 2.93 2.93 0 0 0 5.85 0ZM446.87 542.69a2.62 2.62 0 1 0-5.23 0 2.62 2.62 0 0 0 5.23 0ZM420.06 533.53a3.26 3.26 0 1 0-6.52 0 3.26 3.26 0 0 0 6.52 0ZM438.67 533.53a3.57 3.57 0 1 0-7.14 0 3.57 3.57 0 0 0 7.14 0ZM456.98 533.53a3.57 3.57 0 1 0-7.15 0 3.57 3.57 0 0 0 7.15 0ZM474.14 533.53a2.43 2.43 0 1 0-4.86 0 2.43 2.43 0 0 0 4.86 0ZM429.55 524.38a3.6 3.6 0 1 0-7.2 0 3.6 3.6 0 0 0 7.2 0ZM448.44 524.38a4.19 4.19 0 1 0-8.38 0 4.19 4.19 0 0 0 8.38 0ZM466.75 524.38a4.19 4.19 0 1 0-8.38 0 4.19 4.19 0 0 0 8.38 0ZM483.73 524.38a2.87 2.87 0 1 0-5.74 0 2.87 2.87 0 0 0 5.74 0ZM409.65 506.08a2 2 0 1 0-4 0 2 2 0 0 0 4 0ZM409.65 414.58a2 2 0 1 0-4 0 2 2 0 0 0 4 0ZM400.5 515.21a1.98 1.98 0 1 0-3.97 0 1.98 1.98 0 0 0 3.96 0ZM400.5 423.71a1.98 1.98 0 1 0-3.97 0 1.98 1.98 0 0 0 3.96 0ZM419.13 496.9a2.3 2.3 0 1 0-4.61 0 2.3 2.3 0 0 0 4.61 0ZM428.14 487.72a2.13 2.13 0 1 0-4.27 0 2.13 2.13 0 0 0 4.27 0ZM438.9 515.23a3.8 3.8 0 1 0-7.6 0 3.8 3.8 0 0 0 7.6 0ZM457.8 515.23a4.39 4.39 0 1 0-8.78 0 4.39 4.39 0 0 0 8.77 0ZM476.1 515.23a4.39 4.39 0 1 0-8.78 0 4.39 4.39 0 0 0 8.78 0ZM493.33 515.23a3.32 3.32 0 1 0-6.64 0 3.32 3.32 0 0 0 6.64 0ZM448.44 506.08a4.2 4.2 0 1 0-8.38 0 4.2 4.2 0 0 0 8.38 0ZM467.51 506.08a4.95 4.95 0 1 0-9.9 0 4.95 4.95 0 0 0 9.9 0ZM485.81 506.08a4.95 4.95 0 1 0-9.9 0 4.95 4.95 0 0 0 9.9 0ZM502.82 506.08a3.66 3.66 0 1 0-7.31 0 3.66 3.66 0 0 0 7.3 0ZM457.8 496.93a4.39 4.39 0 1 0-8.78 0 4.39 4.39 0 0 0 8.77 0ZM476.9 496.93a5.19 5.19 0 1 0-10.38 0 5.19 5.19 0 0 0 10.38 0ZM495.2 496.93a5.19 5.19 0 1 0-10.38 0 5.19 5.19 0 0 0 10.38 0ZM511.97 496.93a3.66 3.66 0 1 0-7.31 0 3.66 3.66 0 0 0 7.31 0ZM467.11 487.78a4.56 4.56 0 1 0-9.11 0 4.56 4.56 0 0 0 9.11 0ZM486.26 487.78a5.4 5.4 0 1 0-10.8 0 5.4 5.4 0 0 0 10.8 0ZM504.34 487.78a5.18 5.18 0 1 0-10.35 0 5.18 5.18 0 0 0 10.35 0ZM521 487.78a3.54 3.54 0 1 0-7.07 0 3.54 3.54 0 0 0 7.08 0ZM476.62 478.62a4.9 4.9 0 1 0-9.82 0 4.9 4.9 0 0 0 9.82 0ZM495.7 478.62a5.68 5.68 0 1 0-11.37 0 5.68 5.68 0 0 0 11.37 0ZM513.72 478.62a5.4 5.4 0 1 0-10.8 0 5.4 5.4 0 0 0 10.8 0ZM529.88 478.62a3.26 3.26 0 1 0-6.52 0 3.26 3.26 0 0 0 6.52 0ZM485.75 469.47a4.9 4.9 0 1 0-9.78 0 4.9 4.9 0 0 0 9.78 0ZM504.79 469.47a5.63 5.63 0 1 0-11.25 0 5.63 5.63 0 0 0 11.25 0ZM522.47 469.47a5 5 0 1 0-10 0 5 5 0 0 0 10 0ZM420.72 460.32a3.92 3.92 0 1 0-7.84 0 3.92 3.92 0 0 0 7.84 0ZM438.81 460.32a3.71 3.71 0 1 0-7.42 0 3.71 3.71 0 0 0 7.42 0ZM456 460.32a2.59 2.59 0 1 0-5.18 0 2.59 2.59 0 0 0 5.17 0ZM475.32 460.32a3.61 3.61 0 1 0-7.23 0 3.61 3.61 0 0 0 7.23 0ZM495.19 460.32a5.18 5.18 0 1 0-10.36 0 5.18 5.18 0 0 0 10.36 0ZM514.45 460.32a6.13 6.13 0 1 0-12.27 0 6.13 6.13 0 0 0 12.27 0ZM531.47 460.32a4.85 4.85 0 1 0-9.7 0 4.85 4.85 0 0 0 9.7 0ZM411.47 451.17a3.82 3.82 0 1 0-7.65 0 3.82 3.82 0 0 0 7.65 0ZM430.4 451.17a4.44 4.44 0 1 0-8.9 0 4.44 4.44 0 0 0 8.9 0ZM448.7 451.17a4.44 4.44 0 1 0-8.9 0 4.44 4.44 0 0 0 8.9 0ZM465.26 451.17a2.7 2.7 0 1 0-5.4 0 2.7 2.7 0 0 0 5.4 0ZM484.8 451.17a3.94 3.94 0 1 0-7.88 0 3.94 3.94 0 0 0 7.88 0ZM504.79 451.17a5.63 5.63 0 1 0-11.25 0 5.63 5.63 0 0 0 11.25 0Z"></path> <path d="M523.55 451.17a6.08 6.08 0 1 0-12.16 0 6.08 6.08 0 0 0 12.16 0ZM540.34 451.17a4.27 4.27 0 1 0-8.54 0 4.27 4.27 0 0 0 8.54 0ZM421.11 442.02a4.32 4.32 0 1 0-8.63 0 4.32 4.32 0 0 0 8.63 0ZM440.16 442.02a5.06 5.06 0 1 0-10.12 0 5.06 5.06 0 0 0 10.12 0ZM457.74 442.02a4.33 4.33 0 1 0-8.67 0 4.33 4.33 0 0 0 8.67 0ZM474.6 442.02a2.88 2.88 0 1 0-5.78 0 2.88 2.88 0 0 0 5.77 0ZM494.29 442.02a4.28 4.28 0 1 0-8.56 0 4.28 4.28 0 0 0 8.56 0ZM514.5 442.02a6.19 6.19 0 1 0-12.37 0 6.19 6.19 0 0 0 12.37 0Z"></path> <path d="M532.8 442.02a6.19 6.19 0 1 0-12.37 0 6.19 6.19 0 0 0 12.38 0ZM548.41 442.02a3.49 3.49 0 1 0-6.97 0 3.49 3.49 0 0 0 6.97 0ZM466.66 432.87a4.1 4.1 0 1 0-8.21 0 4.1 4.1 0 0 0 8.21 0ZM483.67 432.87a2.81 2.81 0 1 0-5.62 0 2.81 2.81 0 0 0 5.62 0Z"></path> <path d="M524.08 432.87a6.61 6.61 0 1 0-13.22 0 6.61 6.61 0 0 0 13.22 0ZM541.41 432.87a5.34 5.34 0 1 0-10.68 0 5.34 5.34 0 0 0 10.68 0ZM504.34 432.87a5.18 5.18 0 1 0-10.35 0 5.18 5.18 0 0 0 10.35 0ZM430.84 432.87a4.9 4.9 0 1 0-9.78 0 4.9 4.9 0 0 0 9.78 0ZM449.88 432.87a5.63 5.63 0 1 0-11.25 0 5.63 5.63 0 0 0 11.25 0ZM440.56 423.71a5.46 5.46 0 1 0-10.91 0 5.46 5.46 0 0 0 10.9 0ZM459.14 423.71a5.74 5.74 0 1 0-11.47 0 5.74 5.74 0 0 0 11.47 0ZM475.6 423.71a3.9 3.9 0 1 0-7.79 0 3.9 3.9 0 0 0 7.8 0ZM493.28 423.71a3.27 3.27 0 1 0-6.54 0 3.27 3.27 0 0 0 6.54 0ZM514.05 423.71a5.74 5.74 0 1 0-11.47 0 5.74 5.74 0 0 0 11.47 0Z"></path> <path d="M533.58 423.71a6.96 6.96 0 1 0-13.92 0 6.96 6.96 0 0 0 13.92 0ZM549.54 423.71a4.61 4.61 0 1 0-9.23 0 4.61 4.61 0 0 0 9.23 0ZM430.4 414.56a4.45 4.45 0 1 0-8.9 0 4.45 4.45 0 0 0 8.9 0ZM484.12 414.56a3.26 3.26 0 1 0-6.52 0 3.26 3.26 0 0 0 6.52 0ZM503.66 414.56a4.5 4.5 0 1 0-9 0 4.5 4.5 0 0 0 9 0Z"></path> <path d="M524.08 414.56a6.61 6.61 0 1 0-13.22 0 6.61 6.61 0 0 0 13.22 0ZM542.15 414.56a6.08 6.08 0 1 0-12.16 0 6.08 6.08 0 0 0 12.16 0ZM557.56 414.56a3.49 3.49 0 1 0-6.97 0 3.49 3.49 0 0 0 6.97 0ZM449.88 414.56a5.63 5.63 0 1 0-11.25 0 5.63 5.63 0 0 0 11.25 0ZM468.18 414.56a5.63 5.63 0 1 0-11.25 0 5.63 5.63 0 0 0 11.25 0ZM440.05 405.4a4.95 4.95 0 1 0-9.9.01 4.95 4.95 0 0 0 9.9 0ZM476.66 405.4a4.95 4.95 0 1 0-9.9.01 4.95 4.95 0 0 0 9.9 0ZM513.83 405.4a5.51 5.51 0 1 0-11.03 0 5.51 5.51 0 0 0 11.03 0ZM550.21 405.4a5.3 5.3 0 1 0-10.58.01 5.3 5.3 0 0 0 10.58 0Z"></path> <path d="M533.58 405.4a6.96 6.96 0 1 0-13.92 0 6.96 6.96 0 0 0 13.92 0ZM493.05 405.4a3.04 3.04 0 1 0-6.08 0 3.04 3.04 0 0 0 6.08 0ZM459.42 405.4a6.02 6.02 0 1 0-12.04.01 6.02 6.02 0 0 0 12.04 0ZM484.63 396.26a3.77 3.77 0 1 0-7.54 0 3.77 3.77 0 0 0 7.54 0ZM503.21 396.26a4.05 4.05 0 1 0-8.1 0 4.05 4.05 0 0 0 8.1 0ZM557.84 396.26a3.77 3.77 0 1 0-7.53 0 3.77 3.77 0 0 0 7.53 0Z"></path> <path d="M524.08 396.26a6.61 6.61 0 1 0-13.22 0 6.61 6.61 0 0 0 13.22 0ZM542.65 396.26a6.58 6.58 0 1 0-13.16 0 6.58 6.58 0 0 0 13.16 0ZM449.88 396.26a5.62 5.62 0 1 0-11.25 0 5.62 5.62 0 0 0 11.25 0ZM468.58 396.26a6.02 6.02 0 1 0-12.04 0 6.02 6.02 0 0 0 12.04 0ZM439.77 387.1a4.67 4.67 0 1 0-9.34 0 4.67 4.67 0 0 0 9.34 0ZM493.33 387.1a3.32 3.32 0 1 0-6.64 0 3.32 3.32 0 0 0 6.64 0ZM513.32 387.1a5 5 0 1 0-10.01 0 5 5 0 0 0 10.01 0Z"></path> <path d="M533.56 387.1a6.94 6.94 0 1 0-13.88 0 6.94 6.94 0 0 0 13.88 0ZM550.32 387.1a5.4 5.4 0 1 0-10.8 0 5.4 5.4 0 0 0 10.8 0ZM459.42 387.1a6.02 6.02 0 1 0-12.03 0 6.02 6.02 0 0 0 12.03 0ZM477.01 387.1a5.3 5.3 0 1 0-10.6 0 5.3 5.3 0 0 0 10.6 0ZM429.55 359.65a3.6 3.6 0 1 1-7.2 0 3.6 3.6 0 0 1 7.2 0ZM419.51 350.5a2.72 2.72 0 1 1-5.43 0 2.72 2.72 0 0 1 5.44 0ZM420.72 332.2a3.92 3.92 0 1 1-7.84 0 3.92 3.92 0 0 1 7.84 0ZM411.02 323.04a3.38 3.38 0 1 1-6.75 0 3.38 3.38 0 0 1 6.75 0ZM401.43 313.89a2.94 2.94 0 1 1-5.88 0 2.94 2.94 0 0 1 5.88 0ZM392 304.74a2.66 2.66 0 1 1-5.32 0 2.66 2.66 0 0 1 5.32 0ZM401.87 295.59a3.38 3.38 0 1 1-6.75 0 3.38 3.38 0 0 1 6.75 0ZM411.02 286.44a3.38 3.38 0 1 1-6.75 0 3.38 3.38 0 0 1 6.75 0ZM428.87 286.44a2.92 2.92 0 1 1-5.85 0 2.92 2.92 0 0 1 5.85 0ZM446.73 286.44a2.47 2.47 0 1 1-4.95 0 2.47 2.47 0 0 1 4.95 0ZM538.94 286.44a2.86 2.86 0 1 1-5.73 0 2.86 2.86 0 0 1 5.73 0ZM465.82 286.44a3.26 3.26 0 1 1-6.53 0 3.26 3.26 0 0 1 6.53 0ZM456.67 277.28a3.26 3.26 0 1 1-6.53 0 3.26 3.26 0 0 1 6.53 0ZM447.51 268.13a3.26 3.26 0 1 1-6.52 0 3.26 3.26 0 0 1 6.52 0ZM438.36 258.98a3.26 3.26 0 1 1-6.52 0 3.26 3.26 0 0 1 6.52 0ZM429.21 249.83a3.26 3.26 0 1 1-6.52 0 3.26 3.26 0 0 1 6.52 0ZM420.06 240.68a3.26 3.26 0 1 1-6.52 0 3.26 3.26 0 0 1 6.52 0ZM410.49 231.52a2.84 2.84 0 1 1-5.68 0 2.84 2.84 0 0 1 5.68 0ZM400.74 222.37a2.25 2.25 0 1 1-4.5 0 2.25 2.25 0 0 1 4.5 0ZM410.25 213.22a2.6 2.6 0 1 1-5.2 0 2.6 2.6 0 0 1 5.2 0ZM428.87 213.22a2.93 2.93 0 1 1-5.85 0 2.93 2.93 0 0 1 5.85 0ZM446.87 213.22a2.62 2.62 0 1 1-5.23 0 2.62 2.62 0 0 1 5.23 0ZM420.06 222.37a3.26 3.26 0 1 1-6.52 0 3.26 3.26 0 0 1 6.52 0ZM438.67 222.37a3.57 3.57 0 1 1-7.14 0 3.57 3.57 0 0 1 7.14 0ZM456.98 222.37a3.57 3.57 0 1 1-7.14 0 3.57 3.57 0 0 1 7.14 0ZM474.14 222.37a2.43 2.43 0 1 1-4.87 0 2.43 2.43 0 0 1 4.87 0ZM429.55 231.52a3.6 3.6 0 1 1-7.2 0 3.6 3.6 0 0 1 7.2 0ZM448.44 231.52a4.2 4.2 0 1 1-8.38 0 4.2 4.2 0 0 1 8.38 0ZM466.75 231.52a4.2 4.2 0 1 1-8.38 0 4.2 4.2 0 0 1 8.38 0ZM483.73 231.52a2.87 2.87 0 1 1-5.74 0 2.87 2.87 0 0 1 5.74 0ZM409.65 249.83a2 2 0 1 1-4.01 0 2 2 0 0 1 4 0ZM409.65 341.33a2 2 0 1 1-4 0 2 2 0 0 1 4 0ZM400.5 240.7a1.98 1.98 0 1 1-3.97 0 1.98 1.98 0 0 1 3.96 0ZM400.5 332.2a1.98 1.98 0 1 1-3.97 0 1.98 1.98 0 0 1 3.96 0ZM419.13 259a2.3 2.3 0 1 1-4.61 0 2.3 2.3 0 0 1 4.61 0ZM428.14 268.19a2.13 2.13 0 1 1-4.26 0 2.13 2.13 0 0 1 4.26 0ZM438.9 240.68a3.8 3.8 0 1 1-7.6 0 3.8 3.8 0 0 1 7.6 0ZM457.8 240.68a4.39 4.39 0 1 1-8.78 0 4.39 4.39 0 0 1 8.77 0ZM476.1 240.68a4.39 4.39 0 1 1-8.78 0 4.39 4.39 0 0 1 8.78 0ZM493.33 240.68a3.32 3.32 0 1 1-6.64 0 3.32 3.32 0 0 1 6.64 0ZM448.44 249.83a4.2 4.2 0 1 1-8.38 0 4.2 4.2 0 0 1 8.38 0ZM467.51 249.83a4.96 4.96 0 1 1-9.91 0 4.96 4.96 0 0 1 9.91 0ZM485.81 249.83a4.96 4.96 0 1 1-9.9 0 4.96 4.96 0 0 1 9.9 0ZM502.82 249.83a3.66 3.66 0 1 1-7.31 0 3.66 3.66 0 0 1 7.3 0ZM457.8 258.98a4.39 4.39 0 1 1-8.78 0 4.39 4.39 0 0 1 8.77 0ZM476.9 258.98a5.19 5.19 0 1 1-10.38 0 5.19 5.19 0 0 1 10.38 0ZM495.2 258.98a5.19 5.19 0 1 1-10.38 0 5.19 5.19 0 0 1 10.38 0ZM511.97 258.98a3.66 3.66 0 1 1-7.31 0 3.66 3.66 0 0 1 7.31 0ZM467.11 268.13a4.56 4.56 0 1 1-9.11 0 4.56 4.56 0 0 1 9.11 0ZM486.26 268.13a5.4 5.4 0 1 1-10.8 0 5.4 5.4 0 0 1 10.8 0ZM504.34 268.13a5.17 5.17 0 1 1-10.35 0 5.17 5.17 0 0 1 10.35 0ZM521 268.13a3.54 3.54 0 1 1-7.08 0 3.54 3.54 0 0 1 7.09 0ZM476.62 277.28a4.9 4.9 0 1 1-9.82 0 4.9 4.9 0 0 1 9.82 0ZM495.7 277.28a5.68 5.68 0 1 1-11.37 0 5.68 5.68 0 0 1 11.37 0ZM513.72 277.28a5.4 5.4 0 1 1-10.8 0 5.4 5.4 0 0 1 10.8 0ZM529.88 277.28a3.26 3.26 0 1 1-6.52 0 3.26 3.26 0 0 1 6.52 0ZM485.75 286.44a4.9 4.9 0 1 1-9.78 0 4.9 4.9 0 0 1 9.78 0ZM504.79 286.44a5.63 5.63 0 1 1-11.25 0 5.63 5.63 0 0 1 11.25 0ZM522.47 286.44a5 5 0 1 1-10 0 5 5 0 0 1 10 0ZM420.72 295.59a3.92 3.92 0 1 1-7.84 0 3.92 3.92 0 0 1 7.84 0ZM438.81 295.59a3.71 3.71 0 1 1-7.42 0 3.71 3.71 0 0 1 7.42 0ZM456 295.59a2.59 2.59 0 1 1-5.18 0 2.59 2.59 0 0 1 5.17 0ZM475.32 295.59a3.62 3.62 0 1 1-7.23 0 3.62 3.62 0 0 1 7.23 0ZM495.19 295.59a5.18 5.18 0 1 1-10.36 0 5.18 5.18 0 0 1 10.36 0ZM514.45 295.59a6.13 6.13 0 1 1-12.27 0 6.13 6.13 0 0 1 12.27 0ZM531.47 295.59a4.85 4.85 0 1 1-9.7 0 4.85 4.85 0 0 1 9.7 0ZM411.47 304.74a3.83 3.83 0 1 1-7.65 0 3.83 3.83 0 0 1 7.65 0ZM430.4 304.74a4.44 4.44 0 1 1-8.9 0 4.44 4.44 0 0 1 8.9 0ZM448.7 304.74a4.44 4.44 0 1 1-8.9 0 4.44 4.44 0 0 1 8.9 0ZM465.26 304.74a2.7 2.7 0 1 1-5.4 0 2.7 2.7 0 0 1 5.4 0ZM484.8 304.74a3.94 3.94 0 1 1-7.88 0 3.94 3.94 0 0 1 7.88 0ZM504.79 304.74a5.63 5.63 0 1 1-11.25 0 5.63 5.63 0 0 1 11.25 0Z"></path> <path d="M523.55 304.74a6.08 6.08 0 1 1-12.16 0 6.08 6.08 0 0 1 12.16 0ZM540.34 304.74a4.27 4.27 0 1 1-8.54 0 4.27 4.27 0 0 1 8.54 0ZM421.11 313.89a4.32 4.32 0 1 1-8.63 0 4.32 4.32 0 0 1 8.63 0ZM440.16 313.89a5.06 5.06 0 1 1-10.12 0 5.06 5.06 0 0 1 10.12 0ZM457.74 313.89a4.33 4.33 0 1 1-8.67 0 4.33 4.33 0 0 1 8.67 0ZM474.6 313.89a2.88 2.88 0 1 1-5.78 0 2.88 2.88 0 0 1 5.77 0ZM494.29 313.89a4.28 4.28 0 1 1-8.56 0 4.28 4.28 0 0 1 8.56 0ZM514.5 313.89a6.19 6.19 0 1 1-12.37 0 6.19 6.19 0 0 1 12.37 0Z"></path> <path d="M532.8 313.89a6.19 6.19 0 1 1-12.37 0 6.19 6.19 0 0 1 12.38 0ZM548.41 313.89a3.49 3.49 0 1 1-6.97 0 3.49 3.49 0 0 1 6.97 0ZM466.66 323.04a4.1 4.1 0 1 1-8.21 0 4.1 4.1 0 0 1 8.21 0ZM483.67 323.04a2.81 2.81 0 1 1-5.62 0 2.81 2.81 0 0 1 5.62 0Z"></path> <path d="M524.08 323.04a6.61 6.61 0 1 1-13.22 0 6.61 6.61 0 0 1 13.22 0ZM541.41 323.04a5.34 5.34 0 1 1-10.68 0 5.34 5.34 0 0 1 10.68 0ZM504.34 323.04a5.18 5.18 0 1 1-10.35 0 5.18 5.18 0 0 1 10.35 0ZM430.84 323.04a4.9 4.9 0 1 1-9.78 0 4.9 4.9 0 0 1 9.78 0ZM449.88 323.04a5.62 5.62 0 1 1-11.25 0 5.62 5.62 0 0 1 11.25 0ZM440.56 332.2a5.46 5.46 0 1 1-10.92 0 5.46 5.46 0 0 1 10.92 0ZM459.14 332.2a5.74 5.74 0 1 1-11.47 0 5.74 5.74 0 0 1 11.47 0ZM475.6 332.2a3.9 3.9 0 1 1-7.79 0 3.9 3.9 0 0 1 7.8 0ZM493.28 332.2a3.27 3.27 0 1 1-6.54 0 3.27 3.27 0 0 1 6.54 0ZM514.05 332.2a5.74 5.74 0 1 1-11.47 0 5.74 5.74 0 0 1 11.47 0Z"></path> <path d="M533.58 332.2a6.96 6.96 0 1 1-13.92 0 6.96 6.96 0 0 1 13.92 0ZM549.54 332.2a4.61 4.61 0 1 1-9.23 0 4.61 4.61 0 0 1 9.23 0ZM430.4 341.35a4.44 4.44 0 1 1-8.9 0 4.44 4.44 0 0 1 8.9 0ZM484.12 341.35a3.26 3.26 0 1 1-6.52 0 3.26 3.26 0 0 1 6.52 0ZM503.66 341.35a4.5 4.5 0 1 1-9 0 4.5 4.5 0 0 1 9 0Z"></path> <path d="M524.08 341.35a6.61 6.61 0 1 1-13.22 0 6.61 6.61 0 0 1 13.22 0ZM542.15 341.35a6.08 6.08 0 1 1-12.16 0 6.08 6.08 0 0 1 12.16 0ZM557.56 341.35a3.49 3.49 0 1 1-6.97 0 3.49 3.49 0 0 1 6.97 0ZM449.88 341.35a5.62 5.62 0 1 1-11.25 0 5.62 5.62 0 0 1 11.25 0ZM468.18 341.35a5.63 5.63 0 1 1-11.25 0 5.63 5.63 0 0 1 11.25 0ZM440.05 350.5a4.95 4.95 0 1 1-9.9 0 4.95 4.95 0 0 1 9.9 0ZM476.66 350.5a4.95 4.95 0 1 1-9.9 0 4.95 4.95 0 0 1 9.9 0ZM513.83 350.5a5.51 5.51 0 1 1-11.03 0 5.51 5.51 0 0 1 11.03 0ZM550.21 350.5a5.3 5.3 0 1 1-10.58 0 5.3 5.3 0 0 1 10.58 0Z"></path> <path d="M533.58 350.5a6.96 6.96 0 1 1-13.92 0 6.96 6.96 0 0 1 13.92 0ZM493.05 350.5a3.04 3.04 0 1 1-6.08 0 3.04 3.04 0 0 1 6.08 0ZM459.42 350.5a6.02 6.02 0 1 1-12.03 0 6.02 6.02 0 0 1 12.03 0ZM484.63 359.65a3.77 3.77 0 1 1-7.54 0 3.77 3.77 0 0 1 7.54 0ZM503.21 359.65a4.05 4.05 0 1 1-8.1 0 4.05 4.05 0 0 1 8.1 0ZM557.84 359.65a3.77 3.77 0 1 1-7.53 0 3.77 3.77 0 0 1 7.53 0Z"></path> <path d="M524.08 359.65a6.61 6.61 0 1 1-13.22 0 6.61 6.61 0 0 1 13.22 0ZM542.65 359.65a6.58 6.58 0 1 1-13.16 0 6.58 6.58 0 0 1 13.16 0ZM449.88 359.65a5.63 5.63 0 1 1-11.25 0 5.63 5.63 0 0 1 11.25 0ZM468.58 359.65a6.02 6.02 0 1 1-12.04 0 6.02 6.02 0 0 1 12.04 0ZM439.77 368.8a4.67 4.67 0 1 1-9.34 0 4.67 4.67 0 0 1 9.34 0ZM493.33 368.8a3.32 3.32 0 1 1-6.64 0 3.32 3.32 0 0 1 6.64 0ZM513.32 368.8a5 5 0 1 1-10.01 0 5 5 0 0 1 10.01 0Z"></path> <path d="M533.56 368.8a6.94 6.94 0 1 1-13.88 0 6.94 6.94 0 0 1 13.88 0ZM550.32 368.8a5.4 5.4 0 1 1-10.8 0 5.4 5.4 0 0 1 10.8 0ZM459.42 368.8a6.02 6.02 0 1 1-12.04 0 6.02 6.02 0 0 1 12.04 0ZM477.01 368.8a5.3 5.3 0 1 1-10.6 0 5.3 5.3 0 0 1 10.6 0ZM484.78 377.95a3.92 3.92 0 1 0-7.84 0 3.92 3.92 0 0 0 7.84 0Z"></path> <path d="M542.65 377.95a6.58 6.58 0 1 0-13.16 0 6.58 6.58 0 0 0 13.16 0ZM557.82 377.95a3.75 3.75 0 1 0-7.5 0 3.75 3.75 0 0 0 7.5 0ZM503.1 377.95a3.94 3.94 0 1 0-7.88 0 3.94 3.94 0 0 0 7.89 0ZM450 377.95a5.74 5.74 0 1 0-11.49 0 5.74 5.74 0 0 0 11.48 0ZM468.9 377.95a6.34 6.34 0 1 0-12.68 0 6.34 6.34 0 0 0 12.68 0ZM523.82 377.95a6.35 6.35 0 1 0-12.7 0 6.35 6.35 0 0 0 12.7 0ZM378.77 479.25c-55.85 0-101.3-45.44-101.3-101.3 0-55.85 45.44-101.29 101.3-101.29v45.29c-30.88 0-56.01 25.12-56.01 56s25.13 56.01 56 56.01v45.29Z"></path> <path d="M378.77 551.43c-95.66 0-173.48-77.82-173.48-173.48 0-95.65 77.82-173.48 173.48-173.48v45.29c-70.69 0-128.2 57.5-128.2 128.2 0 70.68 57.51 128.19 128.2 128.19v45.28Z"></path> <path d="M378.77 177.57c-110.5 0-200.39 89.9-200.39 200.38 0 110.5 89.9 200.39 200.39 200.39 110.49 0 200.38-89.9 200.38-200.39 0-110.49-89.89-200.38-200.38-200.38Zm0 446.05c-135.47 0-245.67-110.2-245.67-245.67 0-135.46 110.2-245.66 245.67-245.66 135.46 0 245.67 110.2 245.67 245.66 0 135.47-110.21 245.67-245.67 245.67Z"></path> </g> </svg>